<svg xmlns="http://www.w3.org/2000/svg" version="1.1" xmlns:xlink="http://www.w3.org/1999/xlink" xmlns:svgjs="http://svgjs.dev/svgjs" width="1500" height="1500" viewBox="0 0 1500 1500"><g transform="matrix(1,0,0,1,-0.7499999999998863,-0.7499999999997726)"><svg viewBox="0 0 280 280" data-background-color="#046380" preserveAspectRatio="xMidYMid meet" height="1500" width="1500" xmlns="http://www.w3.org/2000/svg" xmlns:xlink="http://www.w3.org/1999/xlink"><g id="tight-bounds" transform="matrix(1,0,0,1,0.13999999999998636,0.13999999999995794)"><svg viewBox="0 0 279.72 279.72" height="279.72" width="279.72"><g><svg viewBox="0 0 279.72 279.72" height="279.72" width="279.72"><g><svg viewBox="0 0 279.72 279.72" height="279.72" width="279.72"><g id="textblocktransform"><svg viewBox="0 0 279.72 279.72" height="279.72" width="279.72" id="textblock"><g><svg viewBox="0 0 279.72 279.72" height="279.72" width="279.72"><g transform="matrix(1,0,0,1,42.612311490195296,42.612311490195296)"><svg viewBox="0 0 194.49537701960944 194.49537701960944" height="194.49537701960944" width="194.49537701960944"><g id="icon-0"><circle r="97" cx="97.24768850980472" cy="97.24768850980472" fill="#ffffff" data-fill-palette-color="accent"></circle><svg xmlns="http://www.w3.org/2000/svg" xmlns:xlink="http://www.w3.org/1999/xlink" version="1.1" x="29.174306552941413" y="29.174306552941413" viewBox="0 2.33 100 95.33500000000001" enable-background="new 0 0 100 100" xml:space="preserve" height="136.1467639137266" width="136.1467639137266" class="icon-jxe-0" data-fill-palette-color="quaternary" id="jxe-0"><path fill="#046380" d="M48.131 2.33V2.381L48.234 2.33H51.255L51.613 2.381 51.664 2.33 51.972 2.381C56.204 2.381 61.359 3.371 67.435 5.351 70.849 6.614 74.228 8.253 77.574 10.267 79.656 11.496 82.08 13.288 84.845 15.643 88.191 18.818 90.409 21.275 91.501 23.017A43.8 43.8 0 0 1 97.492 34.23C99.131 39.214 99.95 43.566 99.95 47.287L100 47.491H99.949L100 47.542V50.767L99.949 50.819 100 50.871C100 53.396 99.488 57.031 98.464 61.777 97.508 65.122 96.467 67.989 95.341 70.379 94.112 72.803 92.44 75.414 90.322 78.213 88.957 79.886 87.181 81.78 84.997 83.897 81.481 86.867 78.512 89.069 76.088 90.502 75.03 91.048 74.074 91.321 73.221 91.321 70.934 91.321 69.398 90.194 68.613 87.941 68.476 87.327 68.408 86.797 68.408 86.354 68.408 84.408 70.115 82.548 73.529 80.773 74.587 80.261 76.276 78.963 78.597 76.881 81.567 73.945 83.632 71.505 84.793 69.559A37 37 0 0 0 88.121 63.159C89.35 59.678 89.964 57.407 89.964 56.349L90.477 53.072 90.374 53.021 90.477 52.713V52.252L90.528 52.2 90.477 52.149 90.528 51.944 90.579 49.64C90.579 39.468 86.808 30.626 79.264 23.117 76.465 20.625 74.4 19.004 73.069 18.253 66.105 13.918 58.749 11.75 51 11.75H48.645L48.338 11.801V11.75L48.287 11.801H48.235C44.788 11.801 40.623 12.603 35.742 14.208 33.147 15.198 30.536 16.495 27.908 18.1 26.235 19.09 23.914 20.967 20.944 23.732L19.254 25.575C12.734 32.846 9.474 41.175 9.474 50.562L9.525 51.125H9.473L9.524 51.176V51.227C9.524 57.918 12.323 65.598 17.921 74.269 22.461 81.028 25.807 86.131 27.957 89.579A48 48 0 0 1 30.158 93.778H30.107A78.4 78.4 0 0 1 17.306 86.456C14.302 84.101 11.862 81.727 9.984 79.339 7.834 76.335 6.246 73.775 5.222 71.658 3.993 69.268 2.849 66.282 1.791 62.697 1.177 60.444 0.682 58.004 0.306 55.376L0.05 52.56H0.101L0.05 52.508 0 49.897V48.463L0.051 48.412 0 48.361V48.31L0.051 48.259 0 48.208 0.051 47.901C0.051 43.224 1.28 37.848 3.738 31.772 5.274 28.393 7.271 25.047 9.729 21.736 11.026 19.961 13.16 17.657 16.129 14.823 19.201 12.229 22.154 10.147 24.987 8.576 27.513 7.176 30.705 5.828 34.562 4.531 37.703 3.507 41.816 2.79 46.902 2.381zM48.694 15.694V15.797L48.745 15.694H51.664L51.715 15.797 51.767 15.694C54.054 15.762 56.99 16.24 60.574 17.128 63.68 18.118 66.258 19.193 68.305 20.354 70.217 21.412 72.402 23.017 74.86 25.167 77.932 28.137 79.912 30.373 80.799 31.875A31 31 0 0 1 84.691 39.607C85.442 41.484 85.971 44.198 86.278 47.748V47.799H86.227L86.278 47.85V49.745C86.278 58.995 82.455 67.257 74.808 74.527 71.292 77.633 69.039 79.238 68.049 79.34A4.9 4.9 0 0 1 66.052 79.749H65.95C63.799 79.749 62.297 78.674 61.444 76.523L61.187 74.987C61.187 72.734 62.689 70.942 65.693 69.611 66.649 69.132 67.758 68.279 69.021 67.05 71.036 64.933 72.469 62.988 73.323 61.212 74.108 59.847 74.859 57.936 75.576 55.478 75.985 53.464 76.19 52.013 76.19 51.126H76.241L76.19 51.022 76.241 50.766V48.001L76.19 47.745H76.241L76.19 47.54C76.19 45.048 75.32 42.044 73.579 38.528 72.725 36.958 71.479 35.285 69.841 33.51 68.101 31.735 66.633 30.506 65.438 29.823 60.591 26.717 55.761 25.163 50.948 25.163H50.795L50.743 25.06 50.692 25.163H50.538L50.487 25.06 50.436 25.163H49.873L49.821 25.06 49.77 25.163H48.848L48.541 25.214V25.163C46.391 25.368 44.718 25.641 43.522 25.982 37.788 27.62 33.316 30.317 30.107 34.072 28.263 36.086 26.83 38.219 25.806 40.472 24.475 43.578 23.809 46.497 23.809 49.228V50.303L23.758 50.354 23.809 50.405V50.507C23.809 55.013 25.516 59.775 28.929 64.793 37.6 78.583 44.273 89.524 48.95 97.614L48.899 97.665H48.847C42.873 97.119 38.879 96.556 36.866 95.976 28.913 83.414 24.458 76.433 23.502 75.035 19.269 68.617 16.641 63.906 15.617 60.902A33 33 0 0 1 13.927 50.405C13.927 42.554 16.504 35.351 21.659 28.797 22.444 27.773 24.065 26.151 26.523 23.933 31.166 20.246 36.234 17.806 41.73 16.611 43.711 16.172 46.031 15.864 48.694 15.694M49.514 29.314V29.417L49.565 29.314H51.153L51.256 29.417 51.307 29.314H51.358L51.41 29.417 51.461 29.314C52.963 29.314 54.994 29.672 57.555 30.389 62.743 32.232 66.686 35.646 69.383 40.63 70.885 43.736 71.636 46.775 71.636 49.744V50.051C71.636 55.718 69.195 60.855 64.314 65.463 62.266 67.102 60.405 67.921 58.733 67.921 56.65 67.921 55.097 66.812 54.073 64.593A5.5 5.5 0 0 1 53.766 63.108C53.766 61.402 55.029 59.678 57.555 57.937 59.364 56.708 60.525 55.291 61.036 53.687 61.446 52.526 61.65 51.383 61.65 50.256V50.051C61.65 46.637 60.148 43.616 57.144 40.988 55.165 39.52 52.706 38.786 49.771 38.786L49.362 38.837V38.786L49.31 38.837H49.207C46.511 38.837 43.916 39.997 41.425 42.318 39.41 44.639 38.404 47.302 38.404 50.306 38.404 52.866 40.162 56.638 43.678 61.622 52.758 75.925 59.739 87.206 64.619 95.468 60.25 96.628 56.888 97.208 54.532 97.208 50.026 90.654 44.735 82.24 38.659 71.966A202 202 0 0 0 31.696 61.161C29.409 57.611 28.264 53.907 28.264 50.05 28.264 44.691 30.227 39.946 34.153 35.816 36.269 33.87 38.198 32.487 39.939 31.669 43.045 30.372 45.111 29.723 46.134 29.723 46.715 29.587 47.841 29.45 49.514 29.314" data-fill-palette-color="quaternary"></path></svg></g></svg></g><g id="text-0"><path d="M34.192 105.644v0c-0.558 1.602-1.295 2.831-2.208 3.687-0.918 0.848-1.894 1.371-2.928 1.57-1.036 0.205-2.01 0.149-2.92-0.168v0c-0.892-0.311-1.661-0.82-2.309-1.529-0.654-0.711-1.103-1.559-1.347-2.546-0.25-0.989-0.183-2.032 0.199-3.129v0c0.212 0.095 0.405 0.173 0.58 0.233 0.181 0.063 0.271 0.095 0.271 0.095v0c1.608 0.561 2.928 0.846 3.96 0.856 1.023 0.014 1.818-0.15 2.384-0.491 0.56-0.343 0.928-0.767 1.104-1.272v0c0.267-0.767 0.2-1.556-0.203-2.367-0.402-0.811-1.009-1.358-1.819-1.641v0c-0.91-0.317-1.85-0.208-2.82 0.328-0.964 0.538-2.075 1.259-3.334 2.162v0c-0.733 0.499-1.55 1.016-2.449 1.549-0.899 0.533-1.876 0.909-2.931 1.128-1.058 0.226-2.188 0.129-3.391-0.291v0c-1.241-0.432-2.239-1.109-2.995-2.029-0.754-0.927-1.289-1.988-1.607-3.183-0.322-1.203-0.455-2.445-0.4-3.726 0.057-1.288 0.286-2.505 0.685-3.652v0c0.493-1.415 1.126-2.499 1.899-3.25 0.772-0.752 1.599-1.229 2.481-1.432 0.876-0.205 1.697-0.174 2.464 0.093v0c0.717 0.25 1.336 0.69 1.858 1.319 0.524 0.623 0.855 1.389 0.993 2.297 0.138 0.908 0.01 1.926-0.383 3.055v0c-0.311-0.192-0.599-0.349-0.865-0.47-0.266-0.121-0.508-0.219-0.725-0.294v0c-1.197-0.417-2.141-0.456-2.833-0.117-0.698 0.337-1.155 0.817-1.373 1.44v0c-0.209 0.599-0.187 1.249 0.064 1.953 0.251 0.703 0.87 1.226 1.855 1.569v0c0.835 0.291 1.63 0.32 2.382 0.086 0.753-0.234 1.48-0.624 2.18-1.17 0.703-0.552 1.409-1.145 2.12-1.778v0c0.715-0.667 1.459-1.288 2.234-1.865 0.78-0.574 1.605-0.993 2.472-1.257 0.872-0.255 1.835-0.199 2.889 0.168v0c1.103 0.385 2.072 1.058 2.904 2.019 0.833 0.961 1.472 2.097 1.917 3.406 0.439 1.307 0.668 2.708 0.685 4.203 0.015 1.502-0.232 2.982-0.74 4.441z" fill="#ffffff" data-fill-palette-color="primary"></path><path d="M48.43 76.627v0c-0.679 0.919-1.624 1.41-2.838 1.474-1.213 0.064-2.452-0.37-3.715-1.304v0c-0.696-0.514-1.381-1.147-2.056-1.9-0.679-0.748-1.313-1.467-1.904-2.157v0c-0.425-0.536-0.833-1.017-1.222-1.445-0.391-0.437-0.731-0.761-1.018-0.973v0c-0.366-0.271-0.689-0.39-0.967-0.357-0.273 0.036-0.484 0.155-0.633 0.357v0c-0.153 0.207-0.238 0.461-0.254 0.761-0.02 0.305 0.057 0.617 0.233 0.935v0l-0.273 0.168c-0.834-0.616-1.399-1.345-1.695-2.188-0.287-0.844-0.352-1.696-0.193-2.556 0.163-0.865 0.483-1.621 0.961-2.269v0c0.392-0.531 0.88-0.963 1.463-1.296 0.573-0.332 1.201-0.487 1.884-0.467 0.681 0.011 1.359 0.265 2.034 0.763v0c0.409 0.302 0.856 0.719 1.342 1.25 0.491 0.535 0.989 1.1 1.494 1.694v0c0.526 0.61 1.061 1.219 1.606 1.827 0.545 0.607 1.064 1.093 1.558 1.458v0c0.446 0.329 0.866 0.528 1.258 0.597 0.393 0.068 0.693-0.038 0.901-0.32v0c0.392-0.531 0.342-1.491-0.15-2.88-0.487-1.386-1.405-2.893-2.755-4.522v0c-0.27-0.323-0.565-0.651-0.885-0.986-0.323-0.329-0.679-0.637-1.066-0.923v0c-0.308-0.228-0.632-0.438-0.973-0.633-0.35-0.193-0.716-0.369-1.1-0.528v0l-0.215-0.159c-0.313-0.732-0.421-1.464-0.323-2.197 0.098-0.732 0.343-1.364 0.735-1.895v0c0.526-0.712 1.247-1.172 2.165-1.38 0.912-0.213 1.838 0.028 2.778 0.722v0c0.547 0.404 1.108 0.978 1.682 1.723 0.573 0.735 1.157 1.511 1.753 2.328v0c0.574 0.801 1.153 1.578 1.738 2.331 0.584 0.743 1.163 1.326 1.736 1.75v0c0.834 0.616 1.468 0.629 1.904 0.039v0c0.122-0.165 0.224-0.397 0.306-0.697 0.082-0.3 0.057-0.66-0.077-1.079v0l0.214-0.174c0.738 0.545 1.239 1.223 1.503 2.033 0.269 0.814 0.33 1.643 0.182 2.487-0.148 0.834-0.464 1.578-0.946 2.231v0c-0.616 0.834-1.474 1.357-2.575 1.57-1.101 0.213-2.345-0.193-3.731-1.217v0l-0.064-0.047c0.809 1.894 1.187 3.516 1.135 4.865-0.052 1.349-0.365 2.411-0.937 3.186z" fill="#ffffff" data-fill-palette-color="primary"></path><path d="M72.346 51.048v0c-0.738 0.546-1.613 0.729-2.624 0.549-1.017-0.176-1.934-0.816-2.75-1.92v0c-0.393-0.531-0.777-1.178-1.154-1.943-0.373-0.759-0.738-1.553-1.095-2.38-0.354-0.822-0.701-1.592-1.042-2.308-0.337-0.711-0.657-1.271-0.96-1.681v0c-0.314-0.425-0.642-0.707-0.984-0.848-0.342-0.141-0.636-0.121-0.88 0.059v0c-0.388 0.287-0.589 0.846-0.606 1.68v0l-0.277 0.008c-0.255-0.312-0.47-0.753-0.645-1.321-0.165-0.568-0.23-1.189-0.195-1.864 0.04-0.678 0.222-1.359 0.546-2.042 0.329-0.687 0.863-1.304 1.601-1.849v0c1.078-0.797 2.092-1.063 3.044-0.798 0.953 0.256 1.753 0.822 2.401 1.698v0c0.106 0.143 0.211 0.296 0.314 0.457 0.103 0.162 0.197 0.322 0.282 0.482v0c-0.249-1.869-0.231-3.455 0.053-4.758 0.289-1.297 0.781-2.203 1.476-2.717v0c0.648-0.479 1.314-0.578 1.999-0.296 0.685 0.282 1.29 0.778 1.816 1.49v0c0.483 0.653 0.846 1.411 1.09 2.273 0.244 0.863 0.277 1.696 0.101 2.5-0.178 0.814-0.631 1.473-1.359 1.978v0l-0.166 0.025c-0.41-0.51-0.893-0.797-1.45-0.862-0.551-0.068-1.032 0.049-1.441 0.351v0c-0.552 0.408-0.863 1.065-0.932 1.971-0.069 0.905 0.281 1.878 1.05 2.918v0c0.467 0.632 1.041 1.263 1.721 1.894 0.685 0.627 1.218 1.197 1.599 1.712v0c0.451 0.61 0.725 1.274 0.82 1.992 0.09 0.722 0.02 1.398-0.211 2.029-0.23 0.622-0.61 1.129-1.142 1.521z" fill="#ffffff" data-fill-palette-color="primary"></path><path d="M101.74 42.59v0c-0.693 0.259-1.394 0.381-2.106 0.365-0.713-0.022-1.28-0.236-1.7-0.643v0c-0.339-2.637-0.674-4.964-1.006-6.983-0.337-2.01-0.673-3.795-1.011-5.353-0.334-1.553-0.685-2.958-1.05-4.218-0.366-1.259-0.749-2.462-1.15-3.609v0c-0.791 0.353-1.535 0.719-2.232 1.1-0.696 0.381-1.281 0.769-1.753 1.164v0l-0.168-0.223c0.436-0.946 0.934-1.788 1.497-2.527 0.562-0.739 1.158-1.389 1.787-1.948v0l-1.014-2.709c-0.685-1.83-0.876-3.461-0.573-4.893 0.305-1.426 0.932-2.633 1.88-3.622 0.942-0.987 2.031-1.712 3.267-2.175v0c1.639-0.613 3.012-0.683 4.12-0.21 1.116 0.477 1.857 1.205 2.223 2.182v0c0.266 0.711 0.305 1.483 0.116 2.315-0.191 0.826-0.644 1.623-1.358 2.39-0.72 0.77-1.744 1.404-3.074 1.902v0c0.126-0.83 0.159-1.628 0.098-2.395-0.053-0.763-0.178-1.407-0.374-1.932v0c-0.15-0.402-0.331-0.705-0.541-0.908-0.212-0.21-0.427-0.274-0.643-0.193v0c-0.451 0.169-0.672 0.897-0.664 2.183 0.007 1.28 0.353 2.836 1.039 4.666v0l0.253 0.677c0.677-0.282 1.34-0.516 1.99-0.702 0.649-0.187 1.255-0.357 1.817-0.511v0c0.11 0.142 0.213 0.305 0.31 0.487 0.09 0.185 0.171 0.373 0.243 0.564v0c0.132 0.352 0.219 0.725 0.26 1.119 0.042 0.393 0.049 0.81 0.024 1.249v0c-0.445 0.11-0.951 0.247-1.518 0.41-0.563 0.154-1.158 0.335-1.785 0.541v0l0.295 0.789c0.488 1.305 1.001 2.833 1.537 4.585 0.528 1.748 1.09 3.854 1.687 6.316 0.595 2.456 1.205 5.421 1.829 8.896v0c-0.539 0.801-1.39 1.419-2.552 1.854z" fill="#ffffff" data-fill-palette-color="primary"></path><path d="M150.757 27.308v0c-1.69-0.149-3.062-0.562-4.116-1.239-1.047-0.682-1.793-1.501-2.239-2.454-0.453-0.955-0.636-1.912-0.551-2.873v0c0.083-0.94 0.389-1.812 0.917-2.613 0.529-0.808 1.242-1.451 2.139-1.929 0.898-0.484 1.925-0.675 3.083-0.572v0c-0.04 0.228-0.068 0.435-0.085 0.619-0.017 0.191-0.025 0.286-0.025 0.286v0c-0.15 1.697-0.104 3.046 0.139 4.049 0.237 0.995 0.59 1.726 1.059 2.191 0.47 0.459 0.971 0.712 1.504 0.759v0c0.809 0.071 1.558-0.187 2.246-0.776 0.688-0.589 1.07-1.311 1.146-2.165v0c0.085-0.96-0.251-1.845-1.008-2.654-0.758-0.803-1.728-1.704-2.913-2.703v0c-0.664-0.589-1.364-1.254-2.1-1.996-0.736-0.741-1.34-1.597-1.812-2.566-0.478-0.97-0.66-2.09-0.548-3.359v0c0.116-1.309 0.527-2.442 1.235-3.4 0.714-0.958 1.612-1.737 2.692-2.337 1.088-0.606 2.259-1.04 3.515-1.3 1.262-0.26 2.499-0.336 3.709-0.229v0c1.493 0.132 2.698 0.48 3.616 1.045 0.918 0.565 1.583 1.25 1.996 2.056 0.413 0.799 0.584 1.603 0.512 2.411v0c-0.067 0.756-0.342 1.464-0.824 2.125-0.476 0.661-1.137 1.169-1.984 1.524-0.847 0.356-1.865 0.481-3.055 0.376v0c0.11-0.348 0.191-0.666 0.243-0.952 0.052-0.287 0.088-0.546 0.108-0.776v0c0.112-1.263-0.082-2.188-0.58-2.776-0.498-0.594-1.075-0.92-1.733-0.978v0c-0.631-0.056-1.257 0.124-1.877 0.54-0.62 0.416-0.976 1.143-1.067 2.182v0c-0.078 0.881 0.089 1.658 0.499 2.331 0.411 0.673 0.967 1.282 1.668 1.828 0.707 0.546 1.455 1.086 2.243 1.62v0c0.821 0.53 1.606 1.1 2.355 1.709 0.748 0.616 1.355 1.313 1.823 2.09 0.461 0.783 0.642 1.73 0.544 2.842v0c-0.103 1.164-0.519 2.267-1.247 3.31-0.728 1.042-1.673 1.94-2.833 2.692-1.16 0.746-2.462 1.31-3.907 1.693-1.452 0.382-2.948 0.505-4.487 0.369z" fill="#ffffff" data-fill-palette-color="primary"></path><path d="M178.089 40.322v0c-0.586-0.241-1.083-0.62-1.491-1.138-0.4-0.521-0.63-1.194-0.691-2.018-0.063-0.818 0.142-1.805 0.617-2.959v0c0.452-1.099 1.089-2.233 1.912-3.401 0.825-1.174 1.695-2.334 2.608-3.478 0.907-1.148 1.748-2.247 2.523-3.3 0.778-1.058 1.353-2.042 1.728-2.951v0c0.281-0.684 0.38-1.186 0.297-1.506-0.086-0.328-0.258-0.545-0.514-0.65v0c-0.238-0.098-0.503-0.121-0.796-0.07-0.296 0.043-0.561 0.123-0.795 0.24v0l-0.191-0.239c0.339-0.824 0.888-1.484 1.649-1.978 0.766-0.492 1.611-0.794 2.535-0.906 0.927-0.119 1.79-0.014 2.59 0.315v0c0.776 0.319 1.315 0.769 1.619 1.351 0.312 0.578 0.468 1.224 0.467 1.937-0.007 0.711-0.13 1.428-0.37 2.15v0c1.469-1.038 2.869-1.683 4.201-1.935 1.335-0.244 2.473-0.172 3.413 0.215v0c1.27 0.522 2.099 1.562 2.486 3.12 0.387 1.558 0.065 3.592-0.967 6.103v0c-0.964 2.345-2.148 4.157-3.551 5.435-1.401 1.273-2.835 2.068-4.301 2.387-1.457 0.315-2.772 0.231-3.944-0.251v0c-1.008-0.414-1.816-1.096-2.425-2.046-0.615-0.952-0.922-2.099-0.92-3.441v0c-0.604 0.879-1.175 1.755-1.711 2.627-0.539 0.878-0.992 1.762-1.359 2.654v0c-0.203 0.495-0.371 0.99-0.503 1.485-0.136 0.487-0.23 0.994-0.283 1.522v0l-0.087 0.21c-0.546 0.461-1.155 0.725-1.824 0.792-0.67 0.067-1.31-0.025-1.922-0.276zM188.802 32.68v0c0.562 0.231 1.145 0.21 1.749-0.063 0.605-0.273 1.208-0.706 1.809-1.301 0.599-0.589 1.143-1.261 1.632-2.017 0.492-0.762 0.895-1.527 1.212-2.296v0c0.407-0.989 0.624-1.882 0.651-2.677 0.03-0.802-0.227-1.314-0.771-1.538v0c-0.678-0.279-1.724 0.095-3.137 1.12-1.408 1.028-2.92 2.84-4.537 5.437v0c-0.085 0.815-0.005 1.522 0.241 2.123 0.248 0.595 0.632 0.999 1.151 1.212z" fill="#ffffff" data-fill-palette-color="primary"></path><path d="M215.842 53.536v0c-1.458-1.22-2.422-2.522-2.891-3.905-0.46-1.384-0.516-2.748-0.167-4.091 0.349-1.343 0.98-2.559 1.891-3.648v0c0.864-1.033 1.917-1.904 3.157-2.614 1.239-0.719 2.58-1.194 4.021-1.426 1.437-0.235 2.895-0.173 4.376 0.188 1.485 0.365 2.909 1.117 4.271 2.258v0c1.458 1.22 2.41 2.521 2.856 3.901 0.446 1.381 0.492 2.75 0.139 4.108-0.362 1.359-1.007 2.592-1.935 3.701v0c-0.843 1.008-1.878 1.868-3.103 2.581-1.226 0.713-2.557 1.188-3.994 1.423-1.437 0.235-2.894 0.165-4.37-0.21-1.472-0.371-2.889-1.126-4.251-2.266zM218.71 51.714v0c0.521 0.436 1.186 0.532 1.994 0.287 0.807-0.254 1.65-0.732 2.531-1.434 0.885-0.697 1.694-1.484 2.427-2.36v0c0.653-0.78 1.194-1.575 1.623-2.386 0.434-0.817 0.689-1.563 0.764-2.241 0.071-0.681-0.127-1.217-0.592-1.606v0c-0.506-0.424-1.166-0.515-1.979-0.274-0.817 0.246-1.664 0.712-2.54 1.399-0.871 0.691-1.682 1.485-2.433 2.381v0c-0.653 0.78-1.196 1.573-1.63 2.381-0.429 0.811-0.682 1.56-0.757 2.246-0.076 0.677 0.122 1.212 0.592 1.607z" fill="#ffffff" data-fill-palette-color="primary"></path><path d="M237.625 77.129v0c-0.455-0.672-0.737-1.411-0.843-2.215-0.098-0.803 0.055-1.608 0.457-2.416 0.399-0.812 1.104-1.561 2.115-2.246v0c0.547-0.37 1.297-0.799 2.251-1.285 0.95-0.492 2.011-1.004 3.183-1.535 1.173-0.54 2.35-1.069 3.529-1.589v0c-0.307-0.406-0.625-0.781-0.953-1.125-0.323-0.347-0.656-0.68-0.999-0.997v0l0.176-0.216c0.793 0.077 1.523 0.224 2.19 0.442 0.67 0.224 1.29 0.51 1.861 0.857v0c1.574-0.667 2.933-1.25 4.079-1.747 1.148-0.507 1.815-0.823 2.001-0.948v0c0.361-0.244 0.845-0.166 1.452 0.236 0.607 0.402 1.146 0.95 1.617 1.644v0c0.411 0.607 0.683 1.256 0.816 1.947 0.133 0.691-0.009 1.318-0.425 1.879v0c-0.215-0.046-0.804 0.09-1.769 0.409-0.965 0.318-2.109 0.743-3.432 1.273v0c0.248 0.414 0.504 0.839 0.767 1.274 0.263 0.436 0.521 0.887 0.774 1.354v0c-0.096 0.129-0.211 0.254-0.343 0.376-0.133 0.122-0.281 0.238-0.445 0.349v0c-0.317 0.215-0.692 0.397-1.125 0.547-0.429 0.155-0.834 0.27-1.215 0.344v0c-0.297-0.533-0.571-1.037-0.821-1.513-0.245-0.48-0.498-0.935-0.757-1.365v0c-1.022 0.445-2.03 0.905-3.025 1.38-0.994 0.474-1.887 0.923-2.677 1.346-0.781 0.425-1.381 0.78-1.802 1.066v0c-0.88 0.596-1.358 1.156-1.435 1.678-0.073 0.528 0.048 1.024 0.363 1.489v0c0.281 0.415 0.622 0.735 1.02 0.959 0.395 0.219 0.758 0.324 1.088 0.316v0l0.118 0.386c-0.943 0.456-1.92 0.627-2.93 0.514-1.015-0.11-1.951-0.425-2.806-0.946-0.859-0.526-1.544-1.167-2.055-1.922z" fill="#ffffff" data-fill-palette-color="primary"></path><path d="M250.131 102.397v0c-0.523-1.482-0.751-2.784-0.685-3.907 0.058-1.127 0.32-2.041 0.786-2.745 0.466-0.703 1.02-1.168 1.661-1.394v0c0.909-0.321 1.862-0.198 2.86 0.367 0.991 0.568 1.732 1.546 2.221 2.934v0c-1.22 0.43-2.14 0.93-2.758 1.498-0.619 0.568-0.998 1.15-1.139 1.745-0.138 0.602-0.127 1.13 0.034 1.585v0c0.193 0.548 0.518 0.952 0.973 1.211 0.456 0.259 0.92 0.306 1.393 0.138v0c0.672-0.237 1.138-0.793 1.397-1.668 0.254-0.867 0.499-1.961 0.732-3.283v0c0.143-0.666 0.321-1.401 0.535-2.205 0.214-0.803 0.558-1.544 1.033-2.223 0.475-0.679 1.154-1.174 2.039-1.485v0c0.934-0.329 1.855-0.349 2.761-0.06 0.911 0.281 1.765 0.778 2.563 1.49 0.804 0.711 1.512 1.539 2.126 2.485 0.618 0.937 1.099 1.895 1.443 2.872v0c0.65 1.843 0.769 3.362 0.358 4.558-0.412 1.195-1.038 1.941-1.878 2.237v0c-0.716 0.253-1.487 0.122-2.312-0.392-0.834-0.518-1.512-1.518-2.035-3v0c1.229-0.405 2.034-0.973 2.414-1.702 0.376-0.721 0.459-1.38 0.247-1.977v0c-0.152-0.43-0.409-0.742-0.771-0.936-0.371-0.198-0.805-0.21-1.303-0.034v0c-0.579 0.204-1.011 0.567-1.297 1.087-0.285 0.521-0.491 1.118-0.617 1.793-0.126 0.675-0.227 1.361-0.303 2.06v0c-0.092 0.95-0.23 1.859-0.413 2.729-0.177 0.868-0.459 1.625-0.847 2.273-0.388 0.648-0.977 1.111-1.768 1.39v0c-1.077 0.38-2.23 0.296-3.459-0.25-1.229-0.547-2.382-1.453-3.458-2.719-1.08-1.257-1.925-2.748-2.533-4.472z" fill="#ffffff" data-fill-palette-color="primary"></path><path d="M14.864 142.047c0-1.78 1.443-3.222 3.222-3.222 1.78 0 3.222 1.443 3.222 3.222 0 1.78-1.443 3.222-3.222 3.222-1.78 0-3.222-1.443-3.222-3.222z" fill="#ffffff" data-fill-palette-color="primary"></path><path d="M264.187 142.047c0-1.78 1.443-3.222 3.222-3.222 1.78 0 3.222 1.443 3.222 3.222 0 1.78-1.443 3.222-3.222 3.222-1.78 0-3.222-1.443-3.222-3.222z" fill="#ffffff" data-fill-palette-color="primary"></path></g><g id="text-1"><path d="M16.544 182.742v0c-0.42-1.273-0.547-2.395-0.382-3.368 0.159-0.97 0.518-1.77 1.075-2.399 0.551-0.627 1.187-1.059 1.908-1.297v0c0.708-0.234 1.436-0.283 2.183-0.148 0.753 0.134 1.445 0.448 2.073 0.943 0.625 0.503 1.081 1.19 1.369 2.061v0c-0.175 0.037-0.335 0.079-0.479 0.127-0.138 0.046-0.207 0.068-0.207 0.069v0c-1.279 0.422-2.244 0.88-2.895 1.372-0.647 0.485-1.067 0.971-1.26 1.459-0.187 0.486-0.216 0.926-0.085 1.322v0c0.203 0.614 0.626 1.076 1.271 1.385 0.64 0.317 1.283 0.369 1.928 0.155v0c0.727-0.24 1.265-0.758 1.615-1.555 0.347-0.803 0.695-1.79 1.045-2.962v0c0.225-0.665 0.49-1.379 0.795-2.14 0.309-0.77 0.739-1.478 1.29-2.126 0.559-0.644 1.315-1.123 2.269-1.437v0c0.991-0.327 1.942-0.384 2.853-0.17 0.912 0.214 1.758 0.619 2.54 1.216 0.775 0.599 1.452 1.314 2.032 2.145 0.582 0.837 1.023 1.71 1.324 2.619v0c0.37 1.122 0.497 2.106 0.38 2.951-0.126 0.841-0.414 1.538-0.865 2.089-0.453 0.546-0.983 0.919-1.591 1.12v0c-0.571 0.188-1.171 0.213-1.801 0.073-0.624-0.142-1.199-0.463-1.726-0.963-0.521-0.503-0.929-1.202-1.224-2.099v0c0.282-0.03 0.536-0.073 0.761-0.126 0.226-0.054 0.423-0.108 0.593-0.164v0c0.953-0.315 1.566-0.743 1.838-1.285 0.279-0.544 0.337-1.064 0.174-1.559v0c-0.157-0.476-0.487-0.875-0.989-1.197-0.496-0.323-1.133-0.356-1.91-0.099v0c-0.665 0.219-1.176 0.586-1.535 1.101-0.361 0.508-0.631 1.102-0.81 1.78-0.177 0.684-0.332 1.396-0.463 2.134v0c-0.132 0.76-0.302 1.508-0.511 2.244-0.211 0.73-0.526 1.387-0.945 1.971-0.419 0.583-1.049 1.014-1.889 1.291v0c-0.871 0.288-1.8 0.33-2.785 0.126-0.985-0.203-1.932-0.607-2.84-1.211-0.911-0.61-1.731-1.379-2.461-2.305-0.726-0.935-1.28-1.983-1.663-3.143z" fill="#ffffff" data-fill-palette-color="primary"></path><path d="M23.208 199.534v0c-0.407-0.808-0.418-1.649-0.032-2.524 0.384-0.881 1.133-1.603 2.247-2.165v0c0.607-0.306 1.294-0.564 2.061-0.774 0.776-0.207 1.512-0.397 2.208-0.57v0c0.528-0.111 1.013-0.227 1.456-0.346 0.44-0.126 0.786-0.252 1.04-0.38v0c0.318-0.161 0.518-0.343 0.6-0.547 0.073-0.207 0.065-0.399-0.024-0.576v0c-0.092-0.183-0.242-0.333-0.449-0.45-0.21-0.123-0.457-0.18-0.74-0.17v0l-0.028-0.252c0.737-0.372 1.455-0.509 2.156-0.411 0.697 0.092 1.318 0.348 1.862 0.768 0.554 0.423 0.975 0.921 1.264 1.493v0c0.235 0.466 0.365 0.958 0.39 1.478 0.028 0.525-0.085 1.026-0.34 1.502-0.255 0.476-0.678 0.863-1.267 1.161v0c-0.36 0.181-0.814 0.351-1.362 0.509-0.546 0.15-1.121 0.299-1.726 0.45v0c-0.62 0.15-1.238 0.31-1.854 0.48-0.625 0.168-1.153 0.36-1.583 0.577v0c-0.389 0.196-0.679 0.42-0.871 0.672-0.185 0.249-0.214 0.5-0.085 0.753v0c0.235 0.466 0.927 0.775 2.076 0.927 1.152 0.144 2.544 0.029 4.175-0.342v0c0.319-0.072 0.653-0.163 1.004-0.274 0.351-0.111 0.694-0.251 1.031-0.42v0c0.271-0.137 0.536-0.293 0.795-0.468 0.259-0.175 0.512-0.369 0.76-0.583v0l0.195-0.098c0.626 0.039 1.179 0.226 1.658 0.561 0.482 0.326 0.841 0.722 1.076 1.188v0c0.315 0.625 0.384 1.296 0.207 2.014-0.178 0.718-0.679 1.285-1.505 1.702v0c-0.483 0.244-1.085 0.436-1.805 0.577-0.726 0.144-1.483 0.278-2.27 0.403v0c-0.773 0.124-1.527 0.256-2.262 0.398-0.732 0.147-1.348 0.347-1.849 0.6v0c-0.737 0.372-0.974 0.817-0.713 1.335v0c0.071 0.141 0.2 0.295 0.387 0.46 0.187 0.165 0.45 0.276 0.79 0.333v0l0.04 0.213c-0.643 0.324-1.299 0.437-1.969 0.339-0.668-0.107-1.272-0.36-1.815-0.76-0.536-0.403-0.948-0.89-1.236-1.461v0c-0.369-0.731-0.432-1.524-0.19-2.378 0.245-0.848 0.975-1.579 2.189-2.191v0l0.053-0.027c-1.621-0.106-2.898-0.416-3.83-0.93-0.935-0.519-1.573-1.118-1.915-1.796z" fill="#ffffff" data-fill-palette-color="primary"></path><path d="M33.143 217.047v0c-0.414-0.589-0.542-1.282-0.384-2.078 0.163-0.801 0.688-1.513 1.574-2.136v0c0.427-0.3 0.944-0.591 1.553-0.873 0.608-0.282 1.244-0.555 1.906-0.819 0.653-0.265 1.265-0.526 1.835-0.782 0.571-0.256 1.018-0.498 1.342-0.725v0c0.346-0.243 0.579-0.496 0.701-0.76 0.118-0.269 0.107-0.503-0.033-0.702v0c-0.216-0.308-0.654-0.477-1.313-0.506v0l-0.005-0.214c0.253-0.202 0.604-0.364 1.052-0.485 0.453-0.125 0.946-0.164 1.478-0.119 0.538 0.042 1.072 0.199 1.602 0.471 0.536 0.269 1.013 0.7 1.43 1.295v0c0.607 0.864 0.799 1.67 0.574 2.417-0.225 0.747-0.689 1.368-1.391 1.862v0c-0.113 0.08-0.234 0.161-0.362 0.242-0.132 0.077-0.26 0.147-0.385 0.21v0c1.478-0.159 2.728-0.114 3.751 0.136 1.023 0.25 1.73 0.652 2.121 1.209v0c0.368 0.524 0.434 1.054 0.198 1.591-0.24 0.532-0.646 0.999-1.218 1.401v0c-0.524 0.368-1.129 0.644-1.815 0.828-0.684 0.174-1.345 0.182-1.981 0.024-0.632-0.153-1.141-0.521-1.527-1.105v0l-0.025-0.14c0.415-0.316 0.653-0.689 0.714-1.119 0.062-0.439-0.02-0.821-0.248-1.145v0c-0.311-0.443-0.825-0.703-1.542-0.781-0.712-0.072-1.487 0.186-2.324 0.775v0c-0.508 0.357-1.016 0.799-1.525 1.326-0.505 0.533-0.963 0.943-1.374 1.232v0c-0.492 0.345-1.024 0.546-1.598 0.602-0.57 0.062-1.101-0.005-1.593-0.199-0.492-0.195-0.888-0.506-1.188-0.933z" fill="#ffffff" data-fill-palette-color="primary"></path><path d="M38.908 234.243v0c-0.393-0.428-0.689-0.905-0.886-1.432-0.198-0.527-0.21-1.004-0.038-1.432v0c1.828-1.036 3.43-1.976 4.806-2.82 1.371-0.84 2.579-1.614 3.623-2.322 1.034-0.709 1.957-1.383 2.769-2.022 0.812-0.639 1.579-1.277 2.302-1.916v0c-0.49-0.474-0.978-0.908-1.467-1.302-0.483-0.399-0.942-0.712-1.376-0.94v0l0.12-0.192c0.821 0.034 1.585 0.148 2.291 0.342 0.707 0.193 1.358 0.438 1.953 0.733v0l1.684-1.549c1.137-1.046 2.275-1.667 3.414-1.862 1.134-0.2 2.203-0.102 3.205 0.295 1.007 0.393 1.863 0.973 2.57 1.741v0c0.934 1.016 1.393 2.002 1.376 2.959-0.021 0.962-0.334 1.72-0.936 2.274v0c-0.442 0.407-0.997 0.662-1.665 0.764-0.663 0.108-1.381 0.015-2.154-0.279-0.773-0.294-1.539-0.854-2.299-1.68v0c0.642-0.16 1.235-0.374 1.779-0.641 0.544-0.267 0.979-0.55 1.304-0.849v0c0.248-0.228 0.416-0.45 0.504-0.666 0.088-0.216 0.07-0.392-0.055-0.528v0c-0.255-0.277-0.85-0.222-1.787 0.164-0.941 0.381-1.98 1.095-3.117 2.14v0l-0.423 0.389c0.408 0.414 0.778 0.832 1.111 1.252 0.328 0.416 0.634 0.807 0.919 1.174v0c-0.075 0.123-0.164 0.245-0.268 0.367-0.108 0.126-0.22 0.243-0.337 0.351v0c-0.224 0.206-0.471 0.38-0.744 0.522-0.277 0.147-0.579 0.277-0.906 0.39v0c-0.217-0.294-0.467-0.625-0.751-0.992-0.284-0.367-0.593-0.747-0.927-1.139v0l-0.488 0.45c-0.812 0.746-1.778 1.573-2.9 2.479-1.127 0.911-2.5 1.949-4.118 3.115-1.628 1.166-3.618 2.494-5.97 3.984v0c-0.75-0.162-1.456-0.603-2.118-1.322z" fill="#ffffff" data-fill-palette-color="primary"></path><path d="M61.01 246.932v0c-1.064-0.814-1.802-1.67-2.214-2.566-0.415-0.891-0.57-1.754-0.464-2.587 0.102-0.828 0.383-1.544 0.844-2.147v0c0.453-0.593 1.027-1.043 1.721-1.353 0.698-0.314 1.446-0.444 2.244-0.39 0.8 0.063 1.564 0.373 2.292 0.931v0c-0.124 0.13-0.232 0.255-0.324 0.375-0.088 0.115-0.132 0.173-0.132 0.173v0c-0.818 1.07-1.357 1.992-1.617 2.766-0.261 0.765-0.334 1.403-0.219 1.915 0.119 0.507 0.344 0.887 0.675 1.139v0c0.514 0.393 1.124 0.536 1.83 0.428 0.707-0.099 1.268-0.418 1.681-0.958v0c0.465-0.608 0.618-1.34 0.457-2.195-0.166-0.859-0.435-1.871-0.807-3.036v0c-0.189-0.677-0.372-1.415-0.55-2.216-0.178-0.81-0.223-1.638-0.132-2.483 0.099-0.847 0.454-1.669 1.063-2.466v0c0.634-0.829 1.388-1.412 2.261-1.749 0.873-0.338 1.801-0.48 2.783-0.427 0.978 0.058 1.941 0.267 2.888 0.626 0.953 0.363 1.809 0.835 2.57 1.417v0c0.939 0.718 1.598 1.459 1.977 2.223 0.37 0.765 0.525 1.503 0.464 2.213-0.066 0.706-0.294 1.313-0.683 1.822v0c-0.365 0.477-0.847 0.836-1.446 1.076-0.595 0.235-1.251 0.294-1.969 0.177-0.713-0.122-1.445-0.469-2.195-1.043v0c0.216-0.184 0.402-0.362 0.558-0.534 0.156-0.172 0.288-0.328 0.397-0.469v0c0.61-0.797 0.875-1.496 0.794-2.098-0.076-0.607-0.321-1.069-0.735-1.386v0c-0.399-0.305-0.896-0.448-1.491-0.43-0.592 0.013-1.136 0.344-1.634 0.995v0c-0.425 0.556-0.641 1.147-0.647 1.774-0.011 0.623 0.1 1.265 0.334 1.927 0.239 0.665 0.513 1.34 0.821 2.024v0c0.319 0.702 0.601 1.415 0.843 2.141 0.237 0.722 0.347 1.442 0.33 2.16-0.017 0.718-0.295 1.429-0.833 2.132v0c-0.558 0.729-1.3 1.287-2.228 1.674-0.928 0.387-1.938 0.588-3.029 0.601-1.096 0.009-2.207-0.163-3.332-0.517-1.127-0.363-2.175-0.916-3.146-1.659z" fill="#ffffff" data-fill-palette-color="primary"></path><path d="M72.052 261.607v0c-0.439-0.242-0.793-0.585-1.062-1.028-0.265-0.448-0.385-0.997-0.358-1.646 0.026-0.649 0.277-1.404 0.752-2.265v0c0.453-0.821 1.056-1.653 1.809-2.497 0.753-0.844 1.537-1.678 2.354-2.502 0.819-0.815 1.581-1.601 2.285-2.358 0.705-0.757 1.245-1.477 1.622-2.159v0c0.281-0.509 0.4-0.895 0.358-1.16-0.037-0.262-0.15-0.445-0.341-0.55v0c-0.179-0.099-0.386-0.141-0.62-0.127-0.231 0.008-0.448 0.047-0.652 0.115v0l-0.125-0.205c0.338-0.613 0.83-1.08 1.476-1.402 0.648-0.313 1.34-0.474 2.076-0.483 0.736-0.008 1.402 0.152 1.998 0.48v0c0.578 0.319 0.964 0.72 1.156 1.204 0.19 0.489 0.25 1.009 0.181 1.559-0.067 0.559-0.229 1.111-0.485 1.656v0c1.251-0.682 2.41-1.06 3.478-1.135 1.073-0.072 1.959 0.086 2.658 0.472v0c0.948 0.523 1.504 1.415 1.668 2.674 0.164 1.26-0.272 2.829-1.309 4.708v0c-0.967 1.751-2.058 3.065-3.272 3.94-1.215 0.875-2.411 1.369-3.589 1.48-1.175 0.121-2.202-0.062-3.081-0.546v0c-0.751-0.415-1.325-1.022-1.721-1.821-0.393-0.805-0.526-1.731-0.4-2.778v0c-0.557 0.627-1.084 1.26-1.581 1.899-0.505 0.641-0.941 1.294-1.307 1.959v0c-0.204 0.37-0.383 0.742-0.538 1.117-0.145 0.372-0.263 0.764-0.354 1.174v0l-0.086 0.156c-0.468 0.315-0.971 0.467-1.508 0.457-0.532-0.007-1.026-0.136-1.482-0.388zM81.153 256.574v0c0.422 0.233 0.882 0.268 1.379 0.105 0.503-0.16 1.014-0.443 1.533-0.85 0.528-0.41 1.016-0.891 1.464-1.443 0.454-0.549 0.84-1.112 1.159-1.691v0c0.408-0.74 0.659-1.42 0.753-2.039 0.091-0.629-0.063-1.053-0.462-1.273v0c-0.509-0.281-1.365-0.082-2.569 0.595-1.195 0.675-2.544 1.959-4.049 3.851v0c-0.138 0.633-0.139 1.194-0.002 1.684 0.142 0.493 0.407 0.847 0.794 1.061z" fill="#ffffff" data-fill-palette-color="primary"></path><path d="M97.009 267.055v0c-1.413-0.518-2.479-1.228-3.195-2.13-0.711-0.9-1.119-1.897-1.225-2.991-0.099-1.091 0.044-2.164 0.43-3.217v0c0.366-0.998 0.914-1.929 1.645-2.794 0.731-0.864 1.6-1.576 2.607-2.135 1.007-0.559 2.109-0.901 3.308-1.024 1.201-0.13 2.458 0.046 3.772 0.527v0c1.413 0.518 2.47 1.232 3.17 2.143 0.702 0.904 1.101 1.908 1.196 3.011 0.101 1.106-0.045 2.195-0.437 3.268v0c-0.359 0.98-0.899 1.896-1.62 2.75-0.721 0.854-1.581 1.562-2.581 2.124-1.007 0.559-2.108 0.898-3.304 1.015-1.196 0.117-2.451-0.065-3.766-0.547zM98.651 264.936v0c0.508 0.186 1.026 0.077 1.554-0.328 0.534-0.402 1.035-0.982 1.502-1.738 0.467-0.757 0.855-1.557 1.164-2.4v0c0.277-0.756 0.469-1.491 0.575-2.205 0.103-0.722 0.089-1.346-0.042-1.871-0.122-0.53-0.41-0.878-0.862-1.044v0c-0.49-0.179-1.005-0.069-1.545 0.33-0.54 0.4-1.043 0.975-1.507 1.726-0.469 0.742-0.862 1.547-1.181 2.416v0c-0.275 0.75-0.464 1.486-0.566 2.208-0.103 0.722-0.092 1.345 0.033 1.868 0.131 0.526 0.422 0.872 0.875 1.038z" fill="#ffffff" data-fill-palette-color="primary"></path><path d="M113.852 272.06v0c-0.625-0.14-1.186-0.415-1.683-0.824-0.49-0.408-0.839-0.953-1.044-1.635-0.206-0.682-0.203-1.493 0.008-2.434v0c0.114-0.509 0.311-1.162 0.591-1.958 0.281-0.803 0.615-1.672 1-2.607 0.387-0.942 0.777-1.883 1.171-2.823v0c-0.397-0.069-0.783-0.115-1.157-0.138-0.374-0.023-0.747-0.032-1.12-0.028v0l-0.01-0.225c0.497-0.376 0.999-0.683 1.505-0.921 0.5-0.24 1.009-0.413 1.528-0.521v0c0.547-1.231 1.014-2.303 1.401-3.217 0.386-0.908 0.599-1.449 0.638-1.623v0c0.075-0.335 0.397-0.55 0.967-0.646 0.563-0.097 1.167-0.073 1.811 0.071v0c0.567 0.127 1.078 0.353 1.532 0.678 0.448 0.324 0.706 0.76 0.773 1.31v0c-0.148 0.089-0.413 0.486-0.795 1.192-0.382 0.706-0.812 1.57-1.292 2.593v0c0.369 0.103 0.745 0.208 1.127 0.313 0.389 0.107 0.785 0.227 1.189 0.358v0c0.013 0.125 0.013 0.26 0 0.406-0.011 0.14-0.034 0.287-0.069 0.441v0c-0.066 0.296-0.183 0.605-0.349 0.927-0.16 0.323-0.329 0.606-0.506 0.851v0c-0.462-0.144-0.894-0.285-1.295-0.423-0.401-0.144-0.792-0.269-1.175-0.375v0c-0.35 0.808-0.68 1.617-0.99 2.427-0.318 0.815-0.589 1.556-0.813 2.223-0.218 0.668-0.37 1.199-0.459 1.593v0c-0.183 0.818-0.155 1.4 0.086 1.744 0.242 0.338 0.576 0.555 1.001 0.651v0c0.393 0.088 0.765 0.09 1.115 0.006 0.344-0.085 0.608-0.222 0.792-0.411v0l0.281 0.154c-0.296 0.779-0.766 1.408-1.408 1.887-0.643 0.485-1.352 0.81-2.126 0.975-0.781 0.163-1.522 0.166-2.225 0.009z" fill="#ffffff" data-fill-palette-color="primary"></path><path d="M127.796 274.473v0c-1.234-0.133-2.243-0.411-3.028-0.834-0.777-0.429-1.338-0.928-1.681-1.496-0.337-0.574-0.476-1.13-0.418-1.669v0c0.081-0.755 0.492-1.391 1.231-1.909 0.739-0.511 1.686-0.705 2.842-0.581v0c-0.11 1.017-0.069 1.842 0.122 2.474 0.197 0.639 0.485 1.108 0.864 1.408 0.379 0.306 0.758 0.48 1.14 0.521v0c0.46 0.049 0.858-0.044 1.195-0.28 0.338-0.236 0.528-0.554 0.571-0.955v0c0.06-0.558-0.176-1.078-0.709-1.56-0.533-0.476-1.231-1.022-2.094-1.64v0c-0.429-0.332-0.893-0.71-1.392-1.136-0.492-0.425-0.9-0.92-1.224-1.486-0.324-0.573-0.446-1.227-0.367-1.962v0c0.084-0.781 0.381-1.446 0.892-1.996 0.517-0.549 1.165-0.987 1.945-1.314 0.779-0.328 1.61-0.551 2.492-0.668 0.876-0.118 1.724-0.133 2.545-0.045v0c1.53 0.165 2.652 0.598 3.366 1.298 0.708 0.7 1.024 1.402 0.949 2.105v0c-0.064 0.597-0.421 1.103-1.07 1.518-0.648 0.408-1.589 0.546-2.823 0.413v0c0.129-1.009-0.002-1.773-0.391-2.293-0.39-0.513-0.831-0.797-1.323-0.85v0c-0.361-0.039-0.671 0.037-0.931 0.229-0.267 0.197-0.423 0.502-0.467 0.916v0c-0.052 0.479 0.058 0.909 0.329 1.29 0.271 0.381 0.628 0.732 1.072 1.052 0.437 0.319 0.892 0.627 1.365 0.924v0c0.642 0.388 1.243 0.794 1.801 1.22 0.558 0.425 1.004 0.885 1.336 1.379 0.325 0.5 0.452 1.078 0.381 1.734v0c-0.097 0.899-0.548 1.694-1.353 2.384-0.811 0.69-1.849 1.202-3.113 1.538-1.271 0.335-2.622 0.425-4.054 0.271z" fill="#ffffff" data-fill-palette-color="primary"></path><path d="M139.363 279.72v0c-0.159-0.158-0.288-0.389-0.387-0.693v0c0.679-0.456 1.128-0.942 1.345-1.457 0.224-0.509 0.335-1.044 0.335-1.605v0c-0.001-0.601-0.067-1.198-0.2-1.792-0.133-0.587-0.199-1.132-0.2-1.634v0c-0.001-0.905 0.275-1.618 0.829-2.14 0.547-0.516 1.283-0.774 2.208-0.775v0c0.977-0.001 1.704 0.272 2.179 0.819 0.469 0.547 0.705 1.234 0.706 2.059v0c0.001 0.839-0.252 1.75-0.759 2.734-0.514 0.984-1.272 1.883-2.275 2.697-0.996 0.813-2.256 1.409-3.781 1.787z" fill="#ffffff" data-fill-palette-color="primary"></path><path d="M161.882 273.693v0c-1.026 0.191-1.931-0.074-2.717-0.794-0.786-0.72-1.312-1.797-1.579-3.231v0c-0.173-0.928-0.255-1.964-0.246-3.108 0.015-1.145 0.066-2.299 0.151-3.463 0.091-1.172 0.157-2.242 0.198-3.21 0.049-0.963 0.024-1.71-0.075-2.243v0c-0.128-0.688-0.4-0.993-0.815-0.916v0c-0.279 0.052-0.557 0.255-0.834 0.609-0.282 0.361-0.457 0.794-0.524 1.296v0l-0.316-0.072c-0.158-1.173-0.057-2.219 0.302-3.139 0.358-0.926 0.869-1.68 1.534-2.26 0.664-0.58 1.36-0.938 2.087-1.073v0c0.772-0.144 1.485 0.002 2.136 0.438 0.653 0.442 1.093 1.274 1.321 2.494v0c0.153 0.824 0.212 1.77 0.176 2.838-0.036 1.068-0.109 2.156-0.218 3.265-0.108 1.115-0.188 2.164-0.24 3.147-0.051 0.99-0.016 1.809 0.105 2.459v0c0.088 0.474 0.236 0.836 0.444 1.085 0.213 0.242 0.505 0.329 0.874 0.261v0c0.532-0.099 1.034-0.471 1.505-1.117 0.47-0.652 0.894-1.436 1.274-2.352 0.38-0.917 0.714-1.809 1.003-2.675v0c-0.188-2.779-0.138-5.031 0.152-6.758 0.29-1.726 0.716-3.008 1.279-3.844 0.569-0.838 1.159-1.314 1.769-1.428v0c0.649-0.121 1.257 0.095 1.823 0.648 0.561 0.56 0.937 1.353 1.128 2.379v0c0.169 0.909 0.138 1.969-0.093 3.18-0.236 1.219-0.798 2.513-1.685 3.88v0c-0.008 0.713 0.012 1.452 0.06 2.215 0.055 0.762 0.145 1.481 0.271 2.156v0c0.157 0.844 0.382 1.531 0.675 2.06 0.286 0.524 0.665 0.742 1.14 0.654v0c0.318-0.059 0.593-0.258 0.825-0.597 0.232-0.339 0.393-0.812 0.481-1.419v0l0.266 0.072c0.357 1.915 0.237 3.435-0.36 4.559-0.595 1.132-1.425 1.797-2.49 1.995v0c-0.967 0.18-1.864-0.147-2.69-0.98-0.827-0.833-1.511-2.381-2.054-4.644v0c-0.68 2.37-1.588 4.184-2.724 5.443-1.129 1.258-2.236 1.988-3.319 2.19z" fill="#ffffff" data-fill-palette-color="primary"></path><path d="M184.625 268.306v0c-0.695 0.254-1.425 0.208-2.191-0.138-0.768-0.352-1.335-1.027-1.699-2.025v0c-0.179-0.49-0.317-1.069-0.414-1.737-0.096-0.668-0.181-1.35-0.253-2.048-0.072-0.698-0.146-1.352-0.222-1.964-0.076-0.612-0.18-1.098-0.312-1.457v0c-0.138-0.378-0.321-0.649-0.549-0.812-0.228-0.163-0.466-0.199-0.714-0.107v0c-0.316 0.116-0.594 0.432-0.835 0.948v0l-0.208-0.051c-0.13-0.297-0.195-0.677-0.196-1.141-0.003-0.47 0.08-0.954 0.25-1.451 0.167-0.504 0.448-0.976 0.843-1.416 0.392-0.446 0.93-0.793 1.612-1.042v0c0.992-0.363 1.835-0.344 2.53 0.056 0.688 0.402 1.183 1.016 1.484 1.84v0c0.111 0.304 0.19 0.606 0.236 0.905v0c0.184-0.728 0.458-1.496 0.824-2.305 0.368-0.802 0.832-1.531 1.394-2.186 0.562-0.655 1.218-1.12 1.968-1.394v0c0.887-0.324 1.591-0.262 2.114 0.187 0.531 0.453 0.951 1.101 1.259 1.944v0c0.29 0.794 0.516 1.671 0.677 2.631 0.157 0.969 0.305 1.902 0.444 2.801 0.139 0.898 0.311 1.63 0.517 2.193v0c0.274 0.75 0.625 1.047 1.053 0.891v0c0.229-0.084 0.403-0.225 0.521-0.422 0.115-0.204 0.18-0.382 0.194-0.535v0l0.226 0.012c0.254 0.695 0.285 1.376 0.093 2.044-0.198 0.67-0.535 1.257-1.011 1.761-0.476 0.505-1.015 0.867-1.617 1.087v0c-0.732 0.267-1.473 0.25-2.223-0.052-0.75-0.302-1.335-1.027-1.754-2.174v0c-0.247-0.676-0.429-1.442-0.545-2.3-0.108-0.853-0.209-1.677-0.303-2.473-0.102-0.799-0.24-1.434-0.412-1.905v0c-0.102-0.279-0.235-0.48-0.4-0.603-0.164-0.123-0.377-0.136-0.637-0.041v0c-0.434 0.159-0.836 0.531-1.205 1.115-0.376 0.587-0.626 1.276-0.752 2.068-0.126 0.791-0.043 1.583 0.246 2.377v0c0.186 0.508 0.426 0.973 0.72 1.392 0.29 0.428 0.535 0.915 0.735 1.461v0c0.372 1.017 0.39 1.885 0.056 2.605-0.334 0.72-0.849 1.207-1.544 1.461z" fill="#ffffff" data-fill-palette-color="primary"></path><path d="M203.448 260.571v0c-0.482 0.246-1.011 0.364-1.588 0.354-0.582-0.007-1.15-0.206-1.705-0.598-0.561-0.388-1.056-1.003-1.486-1.843v0c-0.381-0.747-0.725-1.676-1.032-2.787-0.31-1.117-0.614-2.285-0.91-3.504-0.296-1.22-0.612-2.397-0.946-3.532-0.328-1.137-0.707-2.104-1.135-2.9v0c-0.39-0.765-0.759-1.262-1.107-1.493v0l-0.067-0.066c-0.091-0.672 0.031-1.298 0.366-1.876 0.338-0.573 0.783-1 1.336-1.282v0c0.623-0.318 1.299-0.366 2.027-0.145 0.734 0.218 1.385 0.883 1.952 1.995v0c0.3 0.588 0.587 1.324 0.86 2.207 0.267 0.887 0.538 1.838 0.811 2.855 0.277 1.022 0.539 2.03 0.787 3.023 0.25 0.999 0.495 1.908 0.735 2.727 0.237 0.828 0.479 1.483 0.725 1.965v0c0.255 0.5 0.504 0.806 0.747 0.919 0.237 0.116 0.444 0.129 0.621 0.04v0c0.2-0.102 0.349-0.275 0.447-0.518 0.098-0.243 0.143-0.44 0.133-0.59v0l0.247-0.06c0.309 0.65 0.415 1.315 0.318 1.995-0.092 0.677-0.326 1.293-0.703 1.849-0.385 0.552-0.863 0.974-1.433 1.265z" fill="#ffffff" data-fill-palette-color="primary"></path><path d="M216.384 252.835v0c-1.25 0.839-2.45 1.284-3.602 1.333-1.146 0.046-2.193-0.21-3.14-0.767-0.941-0.561-1.725-1.307-2.35-2.239v0c-0.593-0.882-1.023-1.874-1.293-2.973-0.269-1.1-0.334-2.221-0.195-3.364 0.139-1.143 0.511-2.236 1.115-3.278 0.601-1.048 1.482-1.962 2.644-2.742v0c1.25-0.839 2.449-1.274 3.597-1.305 1.144-0.037 2.191 0.231 3.139 0.802 0.954 0.568 1.75 1.326 2.387 2.275v0c0.582 0.866 1.006 1.842 1.273 2.926 0.267 1.085 0.334 2.197 0.201 3.337-0.139 1.143-0.513 2.233-1.121 3.27-0.608 1.037-1.493 1.945-2.655 2.725zM215.633 250.261v0c0.449-0.302 0.666-0.785 0.649-1.45-0.011-0.668-0.186-1.414-0.524-2.236-0.338-0.823-0.757-1.607-1.257-2.353v0c-0.449-0.669-0.931-1.256-1.445-1.761-0.524-0.507-1.037-0.863-1.539-1.066-0.501-0.213-0.951-0.185-1.351 0.084v0c-0.433 0.291-0.647 0.772-0.641 1.444 0.006 0.672 0.176 1.417 0.51 2.234 0.325 0.816 0.745 1.607 1.26 2.375v0c0.445 0.663 0.93 1.248 1.454 1.755 0.524 0.507 1.034 0.865 1.531 1.072 0.502 0.203 0.954 0.171 1.353-0.098z" fill="#ffffff" data-fill-palette-color="primary"></path><path d="M231.564 241.055v0c-0.983 0.891-2.014 1.42-3.093 1.587-1.079 0.167-2.113 0.043-3.102-0.37-0.994-0.409-1.868-1.029-2.622-1.86v0c-0.714-0.788-1.276-1.713-1.686-2.776-0.41-1.063-0.617-2.194-0.619-3.396-0.007-1.197 0.238-2.377 0.735-3.539 0.497-1.172 1.303-2.264 2.419-3.275v0c1.096-0.993 2.11-1.511 3.042-1.554 0.933-0.052 1.636 0.183 2.111 0.707v0c0.497 0.548 0.677 1.302 0.541 2.263-0.131 0.956-0.723 1.911-1.775 2.865v0c-0.141-0.273-0.3-0.543-0.479-0.809-0.169-0.265-0.347-0.501-0.533-0.707v0c-0.284-0.313-0.589-0.517-0.916-0.612-0.332-0.091-0.669 0.018-1.012 0.328v0c-0.308 0.279-0.51 0.72-0.605 1.324-0.09 0.599-0.009 1.283 0.242 2.052 0.252 0.77 0.741 1.556 1.469 2.358v0c0.714 0.788 1.422 1.309 2.125 1.563 0.703 0.254 1.359 0.301 1.97 0.139 0.611-0.162 1.146-0.451 1.606-0.868v0c0.612-0.554 1.054-1.245 1.329-2.073 0.274-0.828 0.282-1.641 0.022-2.439v0l0.3-0.111c0.701 0.773 1.123 1.588 1.268 2.446 0.145 0.858 0.098 1.711-0.14 2.559-0.233 0.844-0.585 1.631-1.056 2.36-0.48 0.729-0.994 1.342-1.541 1.838z" fill="#ffffff" data-fill-palette-color="primary"></path><path d="M247.12 224.253v0c-0.422 0.507-0.939 0.885-1.549 1.134-0.61 0.248-1.262 0.319-1.956 0.214-0.69-0.11-1.357-0.434-2.002-0.97v0c-0.665-0.553-1.28-1.336-1.846-2.349v0c0.085-0.35 0.137-0.805 0.157-1.365 0.02-0.55-0.028-1.097-0.143-1.639-0.11-0.538-0.328-0.943-0.653-1.213v0c-0.289-0.241-0.613-0.321-0.971-0.242-0.353 0.084-0.665 0.288-0.936 0.613v0c-0.334 0.401-0.524 0.882-0.571 1.445-0.052 0.558 0.008 1.136 0.18 1.734 0.167 0.594 0.415 1.153 0.744 1.676 0.334 0.527 0.709 0.964 1.126 1.311v0c0.401 0.334 0.816 0.593 1.245 0.779 0.43 0.186 0.868 0.464 1.314 0.836v0c0.695 0.579 1.127 1.252 1.296 2.019 0.169 0.767-0.047 1.512-0.647 2.232v0c-0.553 0.665-1.22 1.012-2 1.041-0.78 0.029-1.556-0.277-2.327-0.919v0c-0.401-0.334-0.889-0.826-1.464-1.476-0.58-0.655-1.205-1.39-1.876-2.206-0.675-0.82-1.38-1.66-2.115-2.521-0.73-0.857-1.449-1.665-2.156-2.425-0.716-0.76-1.389-1.401-2.018-1.925v0c-0.34-0.283-0.667-0.525-0.981-0.726-0.318-0.196-0.614-0.305-0.888-0.327v0l-0.137-0.114c-0.103-0.661-0.078-1.268 0.073-1.821 0.151-0.553 0.385-1.02 0.702-1.4v0c0.49-0.589 1.116-0.918 1.878-0.988 0.757-0.074 1.545 0.229 2.362 0.909v0c0.431 0.359 0.908 0.855 1.43 1.487 0.517 0.628 1.048 1.306 1.592 2.034 0.54 0.724 1.049 1.428 1.529 2.11v0c-0.214-0.754-0.403-1.564-0.567-2.43-0.164-0.866-0.202-1.718-0.114-2.556 0.082-0.842 0.407-1.603 0.973-2.283v0c0.655-0.787 1.419-1.194 2.293-1.223 0.874-0.028 1.656 0.245 2.346 0.82v0c0.695 0.579 1.227 1.447 1.596 2.603 0.363 1.153 0.331 2.539-0.098 4.158v0c0.611 0.174 1.24 0.229 1.885 0.165 0.651-0.06 1.248-0.22 1.792-0.48 0.548-0.266 0.974-0.581 1.277-0.947v0c0.156-0.188 0.261-0.375 0.315-0.563v0l0.251-0.023c0.576 1.124 0.806 2.205 0.69 3.242-0.125 1.038-0.469 1.895-1.031 2.569z" fill="#ffffff" data-fill-palette-color="primary"></path><path d="M255.677 211.968v0c-0.768 1.248-1.655 2.129-2.66 2.642-1.008 0.504-2.051 0.707-3.13 0.61-1.079-0.098-2.097-0.441-3.053-1.029v0c-0.905-0.557-1.706-1.29-2.403-2.199-0.702-0.912-1.22-1.936-1.553-3.071-0.339-1.138-0.441-2.333-0.307-3.584 0.13-1.245 0.569-2.475 1.316-3.69v0c0.924-1.502 1.935-2.391 3.036-2.667 1.097-0.271 2.123-0.113 3.079 0.475v0c0.821 0.505 1.444 1.187 1.87 2.045 0.425 0.858 0.625 1.776 0.598 2.752-0.023 0.97-0.298 1.883-0.823 2.737v0c-0.273 0.444-0.619 0.855-1.038 1.234-0.419 0.378-0.911 0.699-1.477 0.964v0c1.113 0.56 2.07 0.723 2.874 0.488 0.803-0.235 1.43-0.717 1.879-1.448v0c0.315-0.512 0.531-1.084 0.649-1.717 0.118-0.633 0.154-1.265 0.109-1.898-0.049-0.627-0.178-1.172-0.389-1.635v0l0.244-0.094c0.883 0.543 1.524 1.189 1.923 1.939 0.396 0.755 0.607 1.552 0.635 2.39 0.027 0.838-0.09 1.665-0.352 2.481-0.256 0.819-0.598 1.578-1.027 2.275zM249.126 207.137v0c0.336-0.545 0.451-1.087 0.347-1.624-0.104-0.537-0.318-1.021-0.641-1.452-0.32-0.437-0.643-0.756-0.969-0.957v0c-0.394-0.242-0.792-0.332-1.195-0.27-0.399 0.057-0.72 0.282-0.962 0.676v0c-0.19 0.309-0.285 0.716-0.285 1.22-0.005 0.5 0.172 1.063 0.532 1.687 0.358 0.615 0.987 1.262 1.887 1.94v0c0.594-0.386 1.023-0.793 1.286-1.22z" fill="#ffffff" data-fill-palette-color="primary"></path><path d="M263.272 197.394v0c-0.283 0.662-0.78 1.185-1.49 1.57-0.708 0.379-1.58 0.563-2.616 0.551-1.039-0.021-2.184-0.299-3.435-0.834v0c-1.293-0.553-2.367-1.232-3.222-2.036-0.855-0.804-1.508-1.654-1.958-2.55-0.453-0.905-0.713-1.791-0.779-2.66-0.066-0.869 0.046-1.643 0.336-2.322v0c0.322-0.753 0.846-1.322 1.571-1.709 0.722-0.395 1.627-0.489 2.716-0.281v0c-0.853-0.559-1.672-1.078-2.457-1.558-0.786-0.48-1.5-0.857-2.144-1.132v0c-0.85-0.364-1.517-0.516-2.002-0.458v0l-0.163-0.07c-0.298-0.63-0.453-1.249-0.466-1.858-0.015-0.603 0.076-1.134 0.273-1.596v0c0.26-0.607 0.672-1.041 1.236-1.302 0.558-0.264 1.186-0.247 1.884 0.052v0c0.389 0.166 0.931 0.477 1.626 0.932 0.704 0.452 1.5 0.976 2.388 1.571 0.891 0.604 1.806 1.218 2.745 1.842 0.937 0.63 1.844 1.212 2.722 1.746 0.874 0.525 1.651 0.933 2.331 1.223v0c0.571 0.244 1.052 0.378 1.443 0.402 0.398 0.027 0.655-0.097 0.773-0.37v0c0.088-0.206 0.108-0.446 0.059-0.717-0.051-0.266-0.151-0.478-0.3-0.635v0l0.219-0.133c0.607 0.26 1.079 0.691 1.417 1.296 0.344 0.607 0.547 1.272 0.611 1.996 0.058 0.721-0.047 1.394-0.315 2.019v0c-0.291 0.68-0.71 1.14-1.257 1.38-0.545 0.234-1.147 0.306-1.807 0.218-0.668-0.085-1.318-0.251-1.95-0.501v0c1.085 1.139 1.771 2.222 2.056 3.25 0.292 1.03 0.277 1.921-0.045 2.674zM260.558 194.046v0c0.205-0.48 0-1.199-0.617-2.16-0.614-0.966-1.655-2.022-3.126-3.168v0l-0.782-0.539c-0.807 0.007-1.426 0.119-1.856 0.337-0.431 0.218-0.714 0.485-0.849 0.8v0c-0.197 0.461-0.131 1.003 0.199 1.625 0.339 0.619 0.846 1.22 1.522 1.804 0.677 0.584 1.446 1.06 2.308 1.429v0c0.832 0.356 1.532 0.515 2.101 0.478 0.577-0.04 0.944-0.243 1.1-0.606z" fill="#ffffff" data-fill-palette-color="primary"></path><path d="M269.81 180.583v0c-0.235 0.791-0.68 1.372-1.334 1.742-0.654 0.37-1.345 0.448-2.073 0.232v0c-0.823-0.244-1.438-0.758-1.846-1.54-0.41-0.776-0.483-1.607-0.221-2.493v0c0.233-0.785 0.679-1.369 1.337-1.752 0.656-0.377 1.351-0.456 2.085-0.239v0c0.823 0.244 1.437 0.761 1.844 1.55 0.4 0.787 0.469 1.62 0.208 2.5z" fill="#ffffff" data-fill-palette-color="primary"></path></g></svg></g></svg></g></svg></g><g></g></svg></g><defs></defs></svg><rect width="279.72" height="279.72" fill="none" stroke="none" visibility="hidden"></rect></g></svg></g></svg>